<svg width="21" height="21" viewBox="0 0 21 21" fill="none" xmlns="http://www.w3.org/2000/svg">
<g clip-path="url(#clip0)">
<path d="M14.4486 20.4H6.15174C2.98029 20.4 0.400146 17.8198 0.400146 14.6484V6.35157C0.400146 3.18012 2.98029 0.599976 6.15174 0.599976H14.4486C17.62 0.599976 20.2001 3.18012 20.2001 6.35157V13.8644C20.2001 14.2916 19.8539 14.6379 19.4267 14.6379C18.9995 14.6379 18.6533 14.2916 18.6533 13.8644V6.35157C18.6533 4.03307 16.767 2.14685 14.4486 2.14685H6.15174C3.83324 2.14685 1.94702 4.03307 1.94702 6.35157V14.6484C1.94702 16.9669 3.83324 18.8531 6.15174 18.8531H14.4486C15.7756 18.8531 16.9975 18.2458 17.8009 17.1868C18.0591 16.8464 18.5443 16.7799 18.8845 17.0381C19.2248 17.2962 19.2914 17.7814 19.0332 18.1217C18.5082 18.8138 17.8223 19.387 17.0496 19.7793C16.2387 20.1912 15.3636 20.4 14.4486 20.4ZM15.6369 10.5C15.6369 7.55728 13.2428 5.16326 10.3001 5.16326C7.35745 5.16326 4.96343 7.55728 4.96343 10.5C4.96343 13.4427 7.35745 15.8367 10.3001 15.8367C13.2428 15.8367 15.6369 13.4427 15.6369 10.5ZM14.09 10.5C14.09 12.5897 12.3899 14.2898 10.3001 14.2898C8.21043 14.2898 6.5103 12.5897 6.5103 10.5C6.5103 8.41026 8.21043 6.71013 10.3001 6.71013C12.3899 6.71013 14.09 8.41026 14.09 10.5ZM14.9408 5.08591C14.9408 5.51308 15.287 5.85935 15.7142 5.85935C16.1414 5.85935 16.4876 5.51308 16.4876 5.08591C16.4876 4.65874 16.1414 4.31248 15.7142 4.31248C15.287 4.31248 14.9408 4.65874 14.9408 5.08591Z" fill="#2A2E54"/>
</g>
<defs>
<clipPath id="clip0">
<rect width="19.8" height="19.8" fill="white" transform="translate(0.400146 0.599976)"/>
</clipPath>
</defs>
</svg>
