<svg xmlns="http://www.w3.org/2000/svg" width="80" height="16"><g fill="#fff"><path d="M13 11H3c-.6 0-1-.4-1-1V2H0V0h3c.6 0 1 .4 1 1v1h11c.9 0 1 1 1 1.3l-2 7c-.2.4-.6.7-1 .7zM4 9h8.2l1.4-5H4v5z"/><circle data-color="color-2" cx="3" cy="14" r="2"/><circle data-color="color-2" cx="13" cy="14" r="2"/></g><path fill="#fff" d="M31 1H17c-.6 0-1 .4-1 1v12c0 .6.4 1 1 1h14c.6 0 1-.4 1-1V2c0-.6-.4-1-1-1zm-1 12H18V6.7l5.5 3.1c.2.2.3.2.5.2s.3 0 .5-.1L30 6.7V13zm0-8.6l-6 3.4-6-3.4V3h12v1.4z"/><g fill="#fff"><path d="M35 16h10c.6 0 1-.4 1-1V7.5l.3.3c.2.1.5.2.7.2.3 0 .6-.1.8-.3.4-.4.3-1-.1-1.4l-7-6c-.4-.3-.9-.3-1.3 0L36 3.1V2c0-.6-.4-1-1-1s-1 .4-1 1v2.8l-1.7 1.4c-.4.4-.5 1-.1 1.4.4.4 1 .5 1.4.1l.4-.2V15c0 .6.4 1 1 1zm1-10.3l4-3.4 4 3.5V14h-2v-3c0-.6-.4-1-1-1h-2c-.6 0-1 .4-1 1v3h-2V5.7z"/><path data-color="color-2" d="M38 6h4v2h-4z"/></g><g transform="translate(48)" fill="#fff"><circle data-color="color-2" cx="6" cy="8" r="2"/><path d="M10 2H6C2.7 2 0 4.7 0 8s2.7 6 6 6h4c3.3 0 6-2.7 6-6s-2.7-6-6-6zm0 10H6c-2.2 0-4-1.8-4-4s1.8-4 4-4h4c2.2 0 4 1.8 4 4s-1.8 4-4 4z"/></g><path d="M70 0h-5c-.6 0-1 .4-1 1v5c0 .6.4 1 1 1h5c.6 0 1-.4 1-1V1c0-.6-.4-1-1-1zm-1 5h-3V2h3v3zm10-5h-5c-.6 0-1 .4-1 1v5c0 .6.4 1 1 1h5c.6 0 1-.4 1-1V1c0-.6-.4-1-1-1zm-1 5h-3V2h3v3zm-8 4h-5c-.6 0-1 .4-1 1v5c0 .6.4 1 1 1h5c.6 0 1-.4 1-1v-5c0-.6-.4-1-1-1zm-1 5h-3v-3h3v3zm10-5h-5c-.6 0-1 .4-1 1v5c0 .6.4 1 1 1h5c.6 0 1-.4 1-1v-5c0-.6-.4-1-1-1zm-1 5h-3v-3h3v3z" fill="#fff"/></svg>