<svg width="21" height="21" fill="none" xmlns="http://www.w3.org/2000/svg"><path d="M20.18 11.956a.82.82 0 00.82-.82V5.763a3.285 3.285 0 00-3.281-3.282H3.28A3.285 3.285 0 000 5.763v9.474a3.285 3.285 0 003.281 3.282H17.72A3.285 3.285 0 0021 15.237a.82.82 0 10-1.64 0c0 .905-.737 1.64-1.641 1.64H3.28c-.904 0-1.64-.735-1.64-1.64v-9.3l7.126 4.431a3.277 3.277 0 001.733.498c.6 0 1.198-.166 1.733-.498l7.126-4.431v5.199c0 .453.368.82.82.82zm-8.814-2.981a1.63 1.63 0 01-1.732 0L2.325 4.43c.27-.194.6-.308.956-.308H17.72c.356 0 .686.114.956.308l-7.309 4.545z" fill="#2A2E54"/></svg>