<svg width="21" height="21" fill="none" xmlns="http://www.w3.org/2000/svg"><g clip-path="url(#clip0)"><path d="M18.853 13.439V3.694c0-.853-.694-1.547-1.547-1.547H3.694c-.853 0-1.547.694-1.547 1.547v13.612c0 .853.694 1.547 1.547 1.547h8.005v-6.729h-1.74a.773.773 0 110-1.547h1.74V8.45a3.097 3.097 0 013.094-3.093h.386a.773.773 0 110 1.546h-.386c-.853 0-1.547.694-1.547 1.547v2.127h1.74a.773.773 0 110 1.547h-1.74v6.73h4.06a1.55 1.55 0 001.547-1.548.773.773 0 011.547 0 3.097 3.097 0 01-3.094 3.094H3.694A3.097 3.097 0 01.6 17.306V3.694A3.097 3.097 0 013.694.6h13.612A3.097 3.097 0 0120.4 3.694v9.745a.773.773 0 11-1.547 0z" fill="#2A2E54"/></g><defs><clipPath id="clip0"><path fill="#fff" transform="translate(.6 .6)" d="M0 0h19.8v19.8H0z"/></clipPath></defs></svg>