<svg width="21" height="21" fill="none" xmlns="http://www.w3.org/2000/svg"><g clip-path="url(#clip0)"><path d="M14.449 20.4H6.152A5.758 5.758 0 01.4 14.648V6.352A5.758 5.758 0 016.152.6h8.297A5.758 5.758 0 0120.2 6.352v7.512a.773.773 0 11-1.547 0V6.352a4.21 4.21 0 00-4.204-4.205H6.152a4.21 4.21 0 00-4.205 4.205v8.296a4.21 4.21 0 004.205 4.205h8.297a4.176 4.176 0 003.352-1.666.773.773 0 111.232.935 5.8 5.8 0 01-1.983 1.657 5.69 5.69 0 01-2.601.621zm1.188-9.9A5.343 5.343 0 0010.3 5.163 5.343 5.343 0 004.963 10.5a5.343 5.343 0 005.337 5.337 5.343 5.343 0 005.337-5.337zm-1.547 0c0 2.09-1.7 3.79-3.79 3.79s-3.79-1.7-3.79-3.79 1.7-3.79 3.79-3.79 3.79 1.7 3.79 3.79zm.85-5.414a.773.773 0 101.548 0 .773.773 0 00-1.547 0z" fill="#2A2E54"/></g><defs><clipPath id="clip0"><path fill="#fff" transform="translate(.4 .6)" d="M0 0h19.8v19.8H0z"/></clipPath></defs></svg>