<svg width="46" height="46" fill="none" xmlns="http://www.w3.org/2000/svg"><path d="M44.588 25.657a1.758 1.758 0 01-2.486 2.486l-3.151-3.152-3.152 3.152a1.752 1.752 0 01-1.243.515 1.758 1.758 0 01-1.243-3l3.152-3.153-3.152-3.151a1.758 1.758 0 112.486-2.486l3.152 3.152 3.151-3.152a1.758 1.758 0 012.486 2.486l-3.151 3.151 3.151 3.152zM26.047.428c-1.996-.841-4.2-.425-5.75 1.088a1.748 1.748 0 00-.105.11l-9.96 11.563H7.134A7.04 7.04 0 00.103 20.22v4.57a7.04 7.04 0 007.031 7.032h3.098l9.96 11.562c.033.038.068.076.104.111 1.025 1 2.333 1.523 3.678 1.523a5.36 5.36 0 002.087-.429c1.987-.838 3.221-2.699 3.221-4.857a1.758 1.758 0 10-3.515 0c0 1.082-.82 1.512-1.071 1.618-.251.105-1.118.388-1.898-.327L12.37 28.917a1.758 1.758 0 00-1.332-.61H7.134A3.52 3.52 0 013.62 24.79v-4.57a3.52 3.52 0 013.515-3.516h3.904a1.76 1.76 0 001.332-.61L22.798 3.987c.771-.707 1.633-.425 1.883-.32.255.107 1.086.543 1.086 1.637v25.638a1.758 1.758 0 103.515 0V5.305c0-2.167-1.24-4.035-3.235-4.877z" fill="#fff"/></svg>