<svg width="45" height="50" fill="none" xmlns="http://www.w3.org/2000/svg"><path d="M10.773 50h-3.14C3.679 50 .46 46.495.46 42.187V7.813C.459 3.505 3.678 0 7.634 0h3.139c3.956 0 7.175 3.505 7.175 7.813v34.374c0 4.308-3.22 7.813-7.175 7.813zM7.633 3.906c-1.977 0-3.587 1.753-3.587 3.906v34.376c0 2.153 1.61 3.906 3.588 3.906h3.139c1.978 0 3.587-1.753 3.587-3.907V7.813c0-2.154-1.61-3.907-3.587-3.907h-3.14zm37.04 38.282c0-1.08-.803-1.954-1.793-1.954-.991 0-1.794.875-1.794 1.953 0 2.154-1.61 3.907-3.587 3.907h-3.05c-1.978 0-3.587-1.753-3.587-3.907V7.813c0-2.154 1.61-3.907 3.587-3.907h3.05c1.978 0 3.587 1.753 3.587 3.906v24.61c0 1.079.803 1.953 1.794 1.953.99 0 1.793-.874 1.793-1.953V7.812C44.673 3.505 41.455 0 37.5 0h-3.05c-3.956 0-7.174 3.505-7.174 7.813v34.374c0 4.308 3.218 7.813 7.174 7.813h3.05c3.956 0 7.174-3.505 7.174-7.813z" fill="#fff"/></svg>