<svg width="45" height="50" fill="none" xmlns="http://www.w3.org/2000/svg"><path d="M7.728 50h-.03C3.94 49.98.883 46.878.883 43.085V6.842A6.746 6.746 0 014.382.882a6.746 6.746 0 016.91.145l29.531 18.204a6.781 6.781 0 013.248 5.828 6.782 6.782 0 01-3.273 5.815L19.45 43.946a1.95 1.95 0 11-2.037-3.326l21.352-13.073a2.873 2.873 0 001.406-2.496 2.872 2.872 0 00-1.393-2.5L9.246 4.347a2.893 2.893 0 00-2.962-.062c-.94.525-1.5 1.48-1.5 2.557v36.242c0 1.795 1.517 3.01 2.934 3.017.463 0 .985-.169 1.52-.494a1.95 1.95 0 112.03 3.328c-1.143.697-2.366 1.066-3.54 1.066z" fill="#fff"/></svg>