<svg width="46" height="46" fill="none" xmlns="http://www.w3.org/2000/svg"><path d="M35.17 28.483a1.758 1.758 0 01-1.543-2.597l.043-.08c.353-.647.886-1.626.886-3.3 0-1.74-.55-2.71-.913-3.352a1.758 1.758 0 013.058-1.733c.445.785 1.371 2.418 1.371 5.085 0 2.57-.856 4.14-1.315 4.983l-.04.074a1.76 1.76 0 01-1.547.92zm4.139-19.837a1.758 1.758 0 00-2.474 2.498c3.065 3.036 4.753 7.068 4.753 11.355 0 4.295-1.688 8.332-4.753 11.368a1.758 1.758 0 102.474 2.498c3.736-3.701 5.794-8.626 5.794-13.866 0-5.232-2.058-10.152-5.794-13.853zM26.047.428c-1.996-.841-4.2-.425-5.75 1.088a1.748 1.748 0 00-.105.11l-9.96 11.563H7.134A7.04 7.04 0 00.103 20.22v4.57a7.04 7.04 0 007.031 7.032h3.098l9.96 11.562c.033.039.068.076.104.111 1.026 1 2.333 1.523 3.678 1.523a5.35 5.35 0 002.088-.429c1.986-.837 3.22-2.699 3.22-4.857a1.758 1.758 0 10-3.515 0c0 1.082-.82 1.512-1.071 1.618-.251.106-1.118.389-1.898-.327L12.37 28.917a1.758 1.758 0 00-1.332-.61H7.134A3.52 3.52 0 013.62 24.79v-4.57a3.52 3.52 0 013.515-3.516h3.904a1.76 1.76 0 001.332-.61L22.798 3.987c.771-.707 1.633-.425 1.883-.32.255.107 1.086.543 1.086 1.637v25.638a1.758 1.758 0 103.516 0V5.305c0-2.167-1.24-4.035-3.236-4.877z" fill="#fff"/></svg>