<svg width="21" height="21" fill="none" xmlns="http://www.w3.org/2000/svg"><path d="M10.5 20.834h-.004c-1.639 0-3.263-.388-4.719-1.121l-4.487 1.02a.82.82 0 01-.983-.976l.972-4.42C.444 13.795.003 12.105 0 10.43v-.018c.001-2.776 1.1-5.39 3.091-7.362A10.472 10.472 0 0110.5 0a10.418 10.418 0 017.397 3.053C19.899 5.047 21 7.664 21 10.42c0 2.083-.625 4.097-1.806 5.822a.82.82 0 11-1.354-.926 8.645 8.645 0 001.52-4.897c0-2.317-.93-4.52-2.621-6.205a8.787 8.787 0 00-6.24-2.574c-4.877 0-8.848 3.927-8.858 8.757v.015c0 1.495.42 3.011 1.216 4.384a.82.82 0 01.091.588l-.761 3.462 3.52-.801a.822.822 0 01.574.079 8.867 8.867 0 004.215 1.068h.004c1.6 0 3.17-.432 4.543-1.25a.82.82 0 11.84 1.409 10.516 10.516 0 01-5.383 1.482zM8.183 6.244c-.18-.4-.37-.413-.54-.42h-.46c-.16 0-.421.06-.641.3-.22.24-.84.818-.84 1.996s.86 2.316.98 2.476c.12.16 1.662 2.653 4.103 3.613 2.028.797 2.441.639 2.882.599.44-.04 1.42-.58 1.62-1.138.201-.559.201-1.038.141-1.138-.06-.1-.22-.16-.46-.28-.24-.12-1.418-.708-1.638-.788-.22-.08-.38-.12-.54.12-.16.24-.632.793-.772.953-.14.16-.28.18-.52.06-.241-.12-1.007-.377-1.924-1.193-.714-.634-1.21-1.444-1.35-1.683-.14-.24-.015-.37.106-.489.107-.107.253-.254.373-.393.12-.14.155-.24.235-.4.08-.16.04-.299-.02-.419s-.521-1.303-.735-1.777" fill="#2A2E54"/></svg>