<svg width="21" height="21" fill="none" xmlns="http://www.w3.org/2000/svg"><g clip-path="url(#clip0)"><path d="M10.5 18.088c-.63 0-6.199-.013-7.789-.443a3.246 3.246 0 01-2.284-2.282C.005 13.778 0 10.633 0 10.5s.005-3.262.426-4.859v-.004a3.315 3.315 0 012.282-2.298l.009-.002c1.572-.413 7.152-.425 7.783-.425.632 0 6.215.013 7.79.443a3.245 3.245 0 012.283 2.282c.437 1.593.428 4.726.427 4.881 0 .026 0 .232-.007.552a.82.82 0 01-.82.804h-.017a.82.82 0 01-.803-.837c.006-.318.006-.52.006-.521.004-.85-.054-3.299-.37-4.449a1.602 1.602 0 00-1.127-1.128c-1.16-.317-5.707-.386-7.362-.386-1.654 0-6.196.066-7.362.37-.537.149-.98.595-1.126 1.14C1.707 7.22 1.64 9.657 1.64 10.5c0 .03.004 3.063.37 4.439a1.6 1.6 0 001.127 1.122c1.171.317 5.711.386 7.362.386 1.655 0 6.202-.066 7.364-.37a1.601 1.601 0 001.125-1.125.82.82 0 111.584.427 3.247 3.247 0 01-2.285 2.283h-.005c-1.572.414-7.152.426-7.783.426zm-.424-4.176l3.521-2.043c.5-.29.8-.81.8-1.39 0-.58-.3-1.099-.8-1.39l-3.521-2.042a1.583 1.583 0 00-1.602-.003 1.59 1.59 0 00-.804 1.392v4.087c0 .582.3 1.102.804 1.392.25.144.524.216.799.216s.551-.073.803-.219zm2.647-3.433l-3.412 1.98V8.5l3.412 1.98z" fill="#2A2E54"/></g><defs><clipPath id="clip0"><path fill="#fff" d="M0 0h21v21H0z"/></clipPath></defs></svg>