<svg width="21" height="21" viewBox="0 0 21 21" fill="none" xmlns="http://www.w3.org/2000/svg">
<g clip-path="url(#clip0)">
<path d="M18.8532 13.439V3.69373C18.8532 2.84078 18.1593 2.14685 17.3063 2.14685H3.69385C2.8409 2.14685 2.14697 2.84078 2.14697 3.69373V17.3062C2.14697 18.1592 2.8409 18.8531 3.69385 18.8531H11.6989V12.1242H9.95869C9.53152 12.1242 9.18525 11.7779 9.18525 11.3508C9.18525 10.9236 9.53152 10.5773 9.95869 10.5773H11.6989V8.45037C11.6989 6.74447 13.0868 5.35662 14.7927 5.35662H15.1794C15.6066 5.35662 15.9528 5.70288 15.9528 6.13005C15.9528 6.55722 15.6066 6.90349 15.1794 6.90349H14.7927C13.9397 6.90349 13.2458 7.59742 13.2458 8.45037V10.5773H14.986C15.4132 10.5773 15.7595 10.9236 15.7595 11.3508C15.7595 11.7779 15.4132 12.1242 14.986 12.1242H13.2458V18.8531H17.3063C18.1593 18.8531 18.8532 18.1592 18.8532 17.3062C18.8532 16.8791 19.1995 16.5328 19.6267 16.5328C20.0538 16.5328 20.4001 16.8791 20.4001 17.3062C20.4001 19.0121 19.0122 20.4 17.3063 20.4H3.69385C1.98795 20.4 0.600098 19.0121 0.600098 17.3062V3.69373C0.600098 1.98783 1.98795 0.599976 3.69385 0.599976H17.3063C19.0122 0.599976 20.4001 1.98783 20.4001 3.69373V13.439C20.4001 13.8662 20.0538 14.2125 19.6267 14.2125C19.1995 14.2125 18.8532 13.8662 18.8532 13.439Z" fill="#2A2E54"/>
</g>
<defs>
<clipPath id="clip0">
<rect width="19.8" height="19.8" fill="white" transform="translate(0.600098 0.599976)"/>
</clipPath>
</defs>
</svg>
