<svg width="45" height="50" viewBox="0 0 45 50" fill="none" xmlns="http://www.w3.org/2000/svg">
<path d="M10.7727 50H7.63373C3.67758 50 0.458984 46.4953 0.458984 42.1875V7.8125C0.458984 3.50469 3.67758 0 7.63373 0H10.7727C14.7289 0 17.9475 3.50469 17.9475 7.8125V42.1875C17.9475 46.4953 14.7289 50 10.7727 50ZM7.63373 3.90625C5.65565 3.90625 4.04636 5.65859 4.04636 7.8125V42.1875C4.04636 44.3414 5.65565 46.0938 7.63373 46.0938H10.7727C12.7508 46.0938 14.36 44.3414 14.36 42.1875V7.8125C14.36 5.65859 12.7508 3.90625 10.7727 3.90625H7.63373ZM44.6733 42.1875C44.6733 41.1088 43.8703 40.2344 42.8797 40.2344C41.889 40.2344 41.086 41.1088 41.086 42.1875C41.086 44.3414 39.4766 46.0938 37.4986 46.0938H34.4493C32.4713 46.0938 30.862 44.3414 30.862 42.1875V7.8125C30.862 5.65859 32.4713 3.90625 34.4493 3.90625H37.4986C39.4766 3.90625 41.086 5.65859 41.086 7.8125V32.4219C41.086 33.5006 41.889 34.375 42.8797 34.375C43.8703 34.375 44.6733 33.5006 44.6733 32.4219V7.8125C44.6733 3.50469 41.4547 0 37.4986 0H34.4493C30.4932 0 27.2746 3.50469 27.2746 7.8125V42.1875C27.2746 46.4953 30.4932 50 34.4493 50H37.4986C41.4547 50 44.6733 46.4953 44.6733 42.1875Z" fill="white"/>
</svg>
