<svg width="21" height="21" viewBox="0 0 21 21" fill="none" xmlns="http://www.w3.org/2000/svg">
<g clip-path="url(#clip0)">
<path d="M10.4999 18.0879C9.87019 18.0879 4.3013 18.0754 2.71113 17.6454C1.60174 17.3472 0.726057 16.4725 0.426972 15.3632C0.00483984 13.7784 0 10.6331 0 10.5C0 10.3675 0.00483984 7.23839 0.425741 5.64124C0.426152 5.63972 0.426562 5.63825 0.426931 5.63673C0.722653 4.54006 1.61815 3.63825 2.70838 3.33941C2.71117 3.33863 2.71396 3.33789 2.71679 3.33711C4.28887 2.92404 9.86887 2.91211 10.4999 2.91211C11.1315 2.91211 16.7152 2.92454 18.2909 3.35512C19.3982 3.65285 20.2739 4.52742 20.5729 5.63673C21.0097 7.23031 21.0006 10.3633 20.9999 10.5184C20.9999 10.5445 20.9995 10.7498 20.993 11.0703C20.984 11.5175 20.6185 11.874 20.1732 11.874C20.1676 11.874 20.162 11.874 20.1563 11.8738C19.7034 11.8647 19.3436 11.4901 19.3527 11.0371C19.3592 10.719 19.3593 10.5179 19.3593 10.5159C19.3634 9.66561 19.3051 7.21735 18.9898 6.06711C18.8415 5.51709 18.4096 5.08589 17.8617 4.93861C16.7028 4.62188 12.1549 4.55273 10.5 4.55273C8.84599 4.55277 4.30364 4.61938 3.13818 4.92273C2.60063 5.07174 2.15885 5.5184 2.01157 6.06206C1.70727 7.21985 1.64062 9.65765 1.64062 10.5C1.64062 10.5304 1.64538 13.5634 2.01165 14.9386C2.15844 15.4829 2.59034 15.9141 3.13826 16.0614C4.30897 16.378 8.84923 16.4472 10.4999 16.4472C12.155 16.4472 16.7018 16.3805 17.8637 16.0767C18.4106 15.9289 18.8416 15.4981 18.9889 14.9521C19.1068 14.5146 19.557 14.2557 19.9945 14.3736C20.4319 14.4915 20.6909 14.9418 20.5729 15.3792C20.2739 16.4885 19.3981 17.363 18.2876 17.6616C18.2861 17.662 18.2846 17.6624 18.2831 17.6628C16.711 18.0759 11.131 18.0879 10.4999 18.0879ZM10.0756 13.9125L13.597 11.8691C14.0976 11.5786 14.3965 11.0591 14.3965 10.4795C14.3965 9.89985 14.0976 9.3803 13.597 9.08979L10.0756 7.04652C9.57463 6.75572 8.97592 6.75477 8.47398 7.04381C7.97051 7.33371 7.66991 7.85424 7.66991 8.43608V12.5228C7.66991 13.1047 7.97051 13.6252 8.47398 13.9151C8.72413 14.0592 8.99836 14.1312 9.27251 14.1312C9.54846 14.1312 9.82437 14.0582 10.0756 13.9125ZM12.723 10.4795L9.31053 12.4596V8.49933L12.723 10.4795Z" fill="#2A2E54"/>
</g>
<defs>
<clipPath id="clip0">
<rect width="21" height="21" fill="white"/>
</clipPath>
</defs>
</svg>
