<svg width="46" height="46" viewBox="0 0 46 46" fill="none" xmlns="http://www.w3.org/2000/svg">
<path d="M44.588 25.657C45.2745 26.3436 45.2745 27.4565 44.588 28.143C44.2448 28.4861 43.795 28.6579 43.3451 28.6579C42.8952 28.6579 42.4453 28.4862 42.1022 28.143L38.9505 24.9913L35.7989 28.143C35.4558 28.4861 35.0059 28.6579 34.556 28.6579C34.1061 28.6579 33.6563 28.4862 33.3131 28.143C32.6266 27.4564 32.6266 26.3435 33.3131 25.657L36.4647 22.5054L33.3131 19.3538C32.6266 18.6673 32.6266 17.5543 33.3131 16.8679C33.9996 16.1815 35.1126 16.1814 35.799 16.8679L38.9506 20.0195L42.1022 16.8679C42.7888 16.1814 43.9017 16.1814 44.5882 16.8679C45.2746 17.5544 45.2747 18.6674 44.5882 19.3538L41.4366 22.5054L44.588 25.657ZM26.0467 0.428241C24.0507 -0.413384 21.8471 0.00329561 20.2962 1.51562C20.2597 1.55123 20.2248 1.58833 20.1916 1.62693L10.2322 13.189H7.13427C3.25727 13.189 0.103027 16.3432 0.103027 20.2202V24.7905C0.103027 28.6675 3.25727 31.8218 7.13427 31.8218H10.2323L20.1917 43.3838C20.2249 43.4224 20.2598 43.4596 20.2963 43.4951C21.3214 44.4946 22.6292 45.0178 23.9739 45.0177C24.6713 45.0177 25.3788 44.8769 26.0615 44.589C28.0483 43.7514 29.2825 41.8901 29.2825 39.7318C29.2825 38.761 28.4956 37.974 27.5247 37.974C26.5538 37.974 25.7669 38.761 25.7669 39.7318C25.7669 40.8138 24.947 41.2436 24.6957 41.3496C24.4446 41.4554 23.5776 41.7384 22.7979 41.0228L12.37 28.9169C12.0361 28.5292 11.5498 28.3063 11.0382 28.3063H7.13427C5.19577 28.3063 3.61865 26.7292 3.61865 24.7907V20.2204C3.61865 18.2819 5.19577 16.7048 7.13427 16.7048H11.0382C11.5498 16.7048 12.036 16.4818 12.37 16.0942L22.7978 3.98818C23.5691 3.28082 24.4311 3.56262 24.6807 3.66778C24.9355 3.77522 25.7669 4.21081 25.7669 5.3046V30.943C25.7669 31.9139 26.5538 32.7009 27.5247 32.7009C28.4956 32.7009 29.2825 31.9139 29.2825 30.943V5.30451C29.2826 3.13829 28.0427 1.26978 26.0467 0.428241Z" fill="white"/>
</svg>
