<svg width="49" height="50" viewBox="0 0 49 50" fill="none" xmlns="http://www.w3.org/2000/svg">
<path d="M11.7305 50H8.3125C4.00469 50 0.5 46.4953 0.5 42.1875V7.8125C0.5 3.50469 4.00469 0 8.3125 0H11.7305C16.0383 0 19.543 3.50469 19.543 7.8125V42.1875C19.543 46.4953 16.0383 50 11.7305 50ZM8.3125 3.90625C6.15859 3.90625 4.40625 5.65859 4.40625 7.8125V42.1875C4.40625 44.3414 6.15859 46.0938 8.3125 46.0938H11.7305C13.8844 46.0938 15.6367 44.3414 15.6367 42.1875V7.8125C15.6367 5.65859 13.8844 3.90625 11.7305 3.90625H8.3125ZM48.6445 42.1875C48.6445 41.1088 47.7701 40.2344 46.6914 40.2344C45.6127 40.2344 44.7383 41.1088 44.7383 42.1875C44.7383 44.3414 42.9859 46.0938 40.832 46.0938H37.5117C35.3578 46.0938 33.6055 44.3414 33.6055 42.1875V7.8125C33.6055 5.65859 35.3578 3.90625 37.5117 3.90625H40.832C42.9859 3.90625 44.7383 5.65859 44.7383 7.8125V32.4219C44.7383 33.5006 45.6127 34.375 46.6914 34.375C47.7701 34.375 48.6445 33.5006 48.6445 32.4219V7.8125C48.6445 3.50469 45.1398 0 40.832 0H37.5117C33.2039 0 29.6992 3.50469 29.6992 7.8125V42.1875C29.6992 46.4953 33.2039 50 37.5117 50H40.832C45.1398 50 48.6445 46.4953 48.6445 42.1875Z" fill="white"/>
</svg>
