<svg width="45" height="50" viewBox="0 0 45 50" fill="none" xmlns="http://www.w3.org/2000/svg">
<path d="M7.72785 50.0006C7.7177 50.0006 7.70744 50.0005 7.69729 50.0005C3.94044 49.98 0.883789 46.8772 0.883789 43.0836V6.84217C0.883789 4.33328 2.19141 2.10466 4.38175 0.881119C6.57209 -0.342615 9.1552 -0.287928 11.2917 1.02731L40.8231 19.231C42.8611 20.4857 44.0755 22.6646 44.0706 25.0589C44.0658 27.4535 42.8425 29.6274 40.7985 30.8744L19.4496 43.9459C18.5311 44.5082 17.3309 44.2195 16.7687 43.3012C16.2064 42.3828 16.4951 41.1826 17.4134 40.6203L38.765 27.5471C39.6574 27.0026 40.1691 26.0934 40.1712 25.051C40.1734 24.0087 39.6655 23.0975 38.7779 22.5509L9.24641 4.34734C8.33098 3.78377 7.22317 3.76033 6.28361 4.28523C5.34416 4.81014 4.78322 5.7659 4.78322 6.84217V43.0837C4.78322 44.8791 6.3009 46.0934 7.71838 46.1011C8.18079 46.1012 8.70276 45.9325 9.23723 45.6066C10.1563 45.0457 11.3562 45.3362 11.917 46.2555C12.4779 47.1747 12.1872 48.3744 11.2681 48.9353C10.1253 49.6325 8.90188 50.0005 7.72785 50.0006Z" fill="white"/>
</svg>
