<svg width="39" height="46" viewBox="0 0 39 46" fill="none" xmlns="http://www.w3.org/2000/svg">
<path d="M35.17 28.4825C34.8865 28.4825 34.5992 28.4138 34.3326 28.269C33.4795 27.8056 33.1635 26.7384 33.6269 25.8853L33.67 25.8064C34.0229 25.1589 34.5564 24.1804 34.5564 22.506C34.5564 20.7664 34.0066 19.7962 33.6426 19.1543C33.164 18.3097 33.4606 17.237 34.3052 16.7582C35.1499 16.2795 36.2224 16.5762 36.7012 17.4208C37.1461 18.2058 38.072 19.8394 38.072 22.506C38.072 25.0766 37.2163 26.646 36.7566 27.4892L36.7163 27.5632C36.3976 28.1498 35.7935 28.4825 35.17 28.4825ZM26.0468 0.428243C24.0508 -0.413386 21.8473 0.0032953 20.2963 1.51563C20.2598 1.55124 20.2249 1.58834 20.1917 1.62694L10.2323 13.1891H7.13431C3.25729 13.1891 0.103027 16.3433 0.103027 20.2203V24.7907C0.103027 28.6677 3.25729 31.8219 7.13431 31.8219H10.2324L20.1918 43.384C20.225 43.4226 20.2599 43.4598 20.2964 43.4954C21.3215 44.4948 22.6293 45.018 23.974 45.0179C24.6714 45.0179 25.3789 44.8771 26.0616 44.5893C28.0484 43.7516 29.2826 41.8904 29.2826 39.732C29.2826 38.7612 28.4957 37.9742 27.5248 37.9742C26.5539 37.9742 25.767 38.7612 25.767 39.732C25.767 40.8141 24.9471 41.2438 24.6958 41.3498C24.4448 41.4557 23.5777 41.7386 22.798 41.0231L12.37 28.917C12.0362 28.5294 11.5499 28.3065 11.0382 28.3065H7.13431C5.1958 28.3065 3.61867 26.7293 3.61867 24.7908V20.2205C3.61867 18.282 5.1958 16.7049 7.13431 16.7049H11.0382C11.5499 16.7049 12.0361 16.4819 12.37 16.0943L22.7979 3.9882C23.5692 3.28083 24.4312 3.56263 24.6809 3.66779C24.9357 3.77524 25.767 4.21083 25.767 5.30463V30.9432C25.767 31.9141 26.5539 32.701 27.5248 32.701C28.4957 32.701 29.2826 31.9141 29.2826 30.9432V5.30454C29.2828 3.1383 28.0428 1.26978 26.0468 0.428243Z" fill="white"/>
</svg>
