<svg width="21" height="21" viewBox="0 0 21 21" fill="none" xmlns="http://www.w3.org/2000/svg">
<path d="M10.4998 20.8339H10.4957C8.85729 20.8332 7.23285 20.4464 5.77711 19.7127L1.28975 20.7334C1.01594 20.7956 0.729149 20.7134 0.529839 20.5155C0.330528 20.3176 0.246414 20.0315 0.306656 19.7572L1.27901 15.3374C0.443642 13.7947 0.00256348 12.1051 0.000160217 10.4297C0 10.4239 0 10.4181 0 10.4125C0.00112152 7.63612 1.09909 5.02137 3.09139 3.05006C5.07921 1.08323 7.71014 0 10.4997 0C13.2955 0.00112152 15.9222 1.08531 17.8969 3.05262C19.899 5.04733 21.001 7.66415 21 10.4209C20.9992 12.5042 20.3745 14.5176 19.1936 16.2433C18.9377 16.6173 18.4272 16.7129 18.0533 16.457C17.6795 16.2012 17.5837 15.6907 17.8396 15.3168C18.8331 13.8649 19.3586 12.1717 19.3594 10.4202C19.3602 8.10299 18.4296 5.8992 16.739 4.21484C15.0739 2.55579 12.8579 1.64159 10.4994 1.64062C5.62186 1.64062 1.65088 5.56755 1.64062 10.3978C1.64062 10.4031 1.64079 10.4082 1.64079 10.4133C1.64014 11.9085 2.06071 13.4244 2.85683 14.7973C2.95985 14.975 2.99254 15.1848 2.94832 15.3852L2.18681 18.8467L5.70758 18.0458C5.90192 18.0017 6.10572 18.0297 6.281 18.1247C7.56738 18.8231 9.02488 19.1926 10.496 19.1932H10.4997C12.0994 19.1932 13.6705 18.7606 15.043 17.9424C15.432 17.7103 15.9355 17.8376 16.1675 18.2268C16.3995 18.616 16.2723 19.1194 15.8831 19.3515C14.2568 20.3212 12.3952 20.8339 10.4997 20.8339H10.4998ZM8.1831 6.24335C8.00317 5.84473 7.8138 5.83111 7.64268 5.82422H7.18238C7.02216 5.82422 6.76197 5.88414 6.54199 6.12366C6.32185 6.36319 5.70133 6.94221 5.70133 8.11997C5.70133 9.29773 6.56202 10.4359 6.68202 10.5958C6.80219 10.7554 8.34364 13.2495 10.7847 14.209C12.8135 15.0064 13.2264 14.8478 13.6667 14.8078C14.1071 14.768 15.0878 14.2289 15.2878 13.6699C15.488 13.1111 15.488 12.632 15.428 12.5319C15.368 12.4322 15.2078 12.3723 14.9677 12.2526C14.7273 12.1329 13.5502 11.5438 13.3301 11.464C13.1099 11.3842 12.9499 11.3443 12.7897 11.584C12.6294 11.8234 12.1578 12.3769 12.0176 12.5365C11.8775 12.6966 11.7374 12.7164 11.4972 12.5968C11.257 12.4766 10.4913 12.2195 9.57378 11.4041C8.8597 10.7695 8.3643 9.96039 8.22411 9.7207C8.08392 9.48134 8.20905 9.35156 8.32954 9.2322C8.43736 9.12502 8.58332 8.97842 8.70348 8.83871C8.82333 8.699 8.85761 8.59918 8.93756 8.43945C9.01767 8.27971 8.97762 8.14 8.91769 8.02016C8.85761 7.90047 8.39651 6.71663 8.18294 6.24335" fill="#2A2E54"/>
</svg>
